<mxfile host="www.draw.io" modified="2019-11-27T00:41:15.572Z" agent="Mozilla/5.0 (Windows NT 10.0; Win64; x64; rv:71.0) Gecko/20100101 Firefox/71.0" etag="VKVK1VS3By0r51KLLEMk" version="12.3.0" type="github" pages="1">
  <diagram name="Page-1" id="97916047-d0de-89f5-080d-49f4d83e522f">
    <mxGraphModel dx="1536" dy="940" grid="1" gridSize="10" guides="1" tooltips="1" connect="1" arrows="1" fold="1" page="1" pageScale="1.5" pageWidth="1169" pageHeight="827" background="#ffffff" math="0" shadow="0">
      <root>
        <mxCell id="0"/>
        <mxCell id="1" parent="0"/>
        <mxCell id="7HnK9eXFFECSjdr3EfDR-130" value="" style="rounded=1;whiteSpace=wrap;html=1;shadow=0;align=center;fillColor=#eeeeee;strokeColor=none;connectable=0;allowArrows=0;arcSize=3;editable=1;movable=0;resizable=1;" vertex="1" parent="1">
          <mxGeometry x="480" y="320" width="880" height="680" as="geometry"/>
        </mxCell>
        <mxCell id="7HnK9eXFFECSjdr3EfDR-79" value="" style="rounded=1;whiteSpace=wrap;html=1;shadow=0;align=center;fillColor=#eeeeee;strokeColor=none;connectable=0;allowArrows=0;arcSize=3;" vertex="1" parent="1">
          <mxGeometry x="1440" y="320" width="300" height="670" as="geometry"/>
        </mxCell>
        <mxCell id="7HnK9eXFFECSjdr3EfDR-78" value="" style="rounded=1;whiteSpace=wrap;html=1;shadow=0;align=center;fillColor=#eeeeee;strokeColor=none;connectable=0;allowArrows=0;arcSize=3;" vertex="1" parent="1">
          <mxGeometry x="29" y="320" width="371" height="670" as="geometry"/>
        </mxCell>
        <mxCell id="3" value="Staff and Faculty" style="rounded=1;fillColor=#10739E;strokeColor=none;shadow=1;gradientColor=none;fontStyle=1;fontColor=#FFFFFF;fontSize=14;" parent="1" vertex="1">
          <mxGeometry x="570" y="220" width="220" height="60" as="geometry"/>
        </mxCell>
        <mxCell id="7HnK9eXFFECSjdr3EfDR-62" value="Licenses" style="edgeStyle=orthogonalEdgeStyle;rounded=1;orthogonalLoop=1;jettySize=auto;html=1;entryX=0.5;entryY=0;entryDx=0;entryDy=0;fontStyle=1;strokeColor=#23445D;strokeWidth=4;endFill=1;endArrow=block;exitX=0.5;exitY=1;exitDx=0;exitDy=0;" edge="1" parent="1" source="4" target="7HnK9eXFFECSjdr3EfDR-63">
          <mxGeometry relative="1" as="geometry">
            <mxPoint x="840" y="490.5" as="sourcePoint"/>
            <mxPoint x="470" y="920.5" as="targetPoint"/>
          </mxGeometry>
        </mxCell>
        <mxCell id="5" value="Institute for Digital Research&#xa;and Education (IDRE)" style="rounded=1;fillColor=#10739E;strokeColor=none;shadow=1;gradientColor=none;fontStyle=1;fontColor=#FFFFFF;fontSize=14;align=center;whiteSpace=wrap;" parent="1" vertex="1">
          <mxGeometry x="812" y="550" width="230" height="60" as="geometry"/>
        </mxCell>
        <mxCell id="7" value="Geography" style="rounded=1;fillColor=#10739E;strokeColor=none;shadow=1;gradientColor=none;fontStyle=1;fontColor=#FFFFFF;fontSize=14;whiteSpace=wrap;" parent="1" vertex="1">
          <mxGeometry x="1508.5" y="376.5" width="200" height="60" as="geometry"/>
        </mxCell>
        <mxCell id="33" value="Geography Student" style="edgeStyle=elbowEdgeStyle;elbow=vertical;strokeWidth=4;endArrow=block;endFill=1;fontStyle=1;strokeColor=#23445D;fontSize=16;rounded=1;exitX=1;exitY=0.5;exitDx=0;exitDy=0;" parent="1" source="7HnK9eXFFECSjdr3EfDR-132" target="7" edge="1">
          <mxGeometry width="100" height="100" as="geometry">
            <mxPoint x="930" y="210" as="sourcePoint"/>
            <mxPoint x="287.5" y="165.5" as="targetPoint"/>
            <Array as="points">
              <mxPoint x="1460" y="250"/>
            </Array>
            <mxPoint x="23" y="-73" as="offset"/>
          </mxGeometry>
        </mxCell>
        <mxCell id="7HnK9eXFFECSjdr3EfDR-65" value="&lt;font style=&quot;font-size: 16px&quot;&gt;ArcGIS Online Instance:&lt;br&gt;&lt;font style=&quot;font-size: 16px&quot;&gt;&lt;u&gt;&lt;b&gt;gisucla.maps.arcgis.com&lt;/b&gt;&lt;/u&gt;&lt;/font&gt;&lt;/font&gt;" style="text;html=1;strokeColor=none;fillColor=none;align=center;verticalAlign=middle;whiteSpace=wrap;rounded=0;shadow=0;" vertex="1" parent="1">
          <mxGeometry x="790" y="950" width="270" height="20" as="geometry"/>
        </mxCell>
        <mxCell id="7HnK9eXFFECSjdr3EfDR-71" value="Facilities Staff" style="edgeStyle=elbowEdgeStyle;elbow=vertical;strokeWidth=4;endArrow=block;endFill=1;fontStyle=1;strokeColor=#23445D;entryX=0.5;entryY=0;entryDx=0;entryDy=0;fontSize=16;rounded=1;exitX=0;exitY=0.5;exitDx=0;exitDy=0;" edge="1" parent="1" source="3" target="7HnK9eXFFECSjdr3EfDR-72">
          <mxGeometry width="100" height="100" as="geometry">
            <mxPoint x="570" y="220" as="sourcePoint"/>
            <mxPoint x="325.5" y="270" as="targetPoint"/>
            <Array as="points">
              <mxPoint x="380" y="250"/>
            </Array>
            <mxPoint x="5" y="-80" as="offset"/>
          </mxGeometry>
        </mxCell>
        <mxCell id="7HnK9eXFFECSjdr3EfDR-72" value="Facilities" style="rounded=1;fillColor=#10739E;strokeColor=none;shadow=1;gradientColor=none;fontStyle=1;fontColor=#FFFFFF;fontSize=14;whiteSpace=wrap;" vertex="1" parent="1">
          <mxGeometry x="80.5" y="380" width="200" height="60" as="geometry"/>
        </mxCell>
        <mxCell id="7HnK9eXFFECSjdr3EfDR-81" value="" style="endArrow=block;html=1;exitX=0.5;exitY=1;exitDx=0;exitDy=0;fontStyle=1;strokeWidth=4;endFill=1;comic=0;" edge="1" parent="1" source="7HnK9eXFFECSjdr3EfDR-120">
          <mxGeometry width="50" height="50" relative="1" as="geometry">
            <mxPoint x="180.5" y="865" as="sourcePoint"/>
            <mxPoint x="180" y="940" as="targetPoint"/>
          </mxGeometry>
        </mxCell>
        <mxCell id="7HnK9eXFFECSjdr3EfDR-82" value="&lt;div style=&quot;font-size: 16px&quot;&gt;&lt;font style=&quot;font-size: 16px&quot;&gt;ArcGIS Online Instance:&lt;/font&gt;&lt;/div&gt;&lt;div style=&quot;font-size: 15px&quot;&gt;&lt;font style=&quot;font-size: 15px&quot;&gt;&lt;u&gt;&lt;b&gt;uclafacilities.maps.arcgis.com&lt;/b&gt;&lt;/u&gt;&lt;br&gt;&lt;/font&gt;&lt;/div&gt;" style="text;html=1;strokeColor=none;fillColor=none;align=center;verticalAlign=middle;whiteSpace=wrap;rounded=0;shadow=0;" vertex="1" parent="1">
          <mxGeometry x="108" y="950" width="145" height="20" as="geometry"/>
        </mxCell>
        <mxCell id="7HnK9eXFFECSjdr3EfDR-93" value="Status of ArcGIS Licensing at UCLA - 2019" style="text;html=1;strokeColor=none;fillColor=none;align=center;verticalAlign=middle;whiteSpace=wrap;rounded=0;fontSize=25;" vertex="1" parent="1">
          <mxGeometry x="675" y="30" width="521" height="20" as="geometry"/>
        </mxCell>
        <mxCell id="7HnK9eXFFECSjdr3EfDR-98" value="&lt;span style=&quot;background-color: rgb(248 , 206 , 204)&quot;&gt;Administers&lt;/span&gt;" style="endArrow=block;html=1;fontStyle=1;strokeWidth=4;endFill=1;comic=0;exitX=0.5;exitY=1;exitDx=0;exitDy=0;entryX=0.5;entryY=0;entryDx=0;entryDy=0;" edge="1" parent="1" source="7" target="7HnK9eXFFECSjdr3EfDR-122">
          <mxGeometry width="50" height="50" relative="1" as="geometry">
            <mxPoint x="1608" y="540" as="sourcePoint"/>
            <mxPoint x="1608" y="690.5" as="targetPoint"/>
          </mxGeometry>
        </mxCell>
        <mxCell id="7HnK9eXFFECSjdr3EfDR-99" value="&lt;div style=&quot;font-size: 16px&quot;&gt;&lt;font style=&quot;font-size: 16px&quot;&gt;ArcGIS Online Instance:&lt;/font&gt;&lt;/div&gt;&lt;div style=&quot;font-size: 16px&quot;&gt;&lt;font style=&quot;font-size: 16px&quot;&gt;&lt;u&gt;&lt;b&gt;uclageography.maps.arcgis.com&lt;/b&gt;&lt;/u&gt;&lt;br&gt;&lt;/font&gt;&lt;/div&gt;" style="text;html=1;strokeColor=none;fillColor=none;align=center;verticalAlign=middle;whiteSpace=wrap;rounded=0;" vertex="1" parent="1">
          <mxGeometry x="1536" y="950" width="145" height="20" as="geometry"/>
        </mxCell>
        <mxCell id="4" value="Office of Information Technology" style="rounded=1;fillColor=#10739E;strokeColor=none;shadow=1;gradientColor=none;fontStyle=1;fontColor=#FFFFFF;fontSize=14;verticalAlign=middle;whiteSpace=wrap;" parent="1" vertex="1">
          <mxGeometry x="580" y="380" width="200" height="60" as="geometry"/>
        </mxCell>
        <mxCell id="7HnK9eXFFECSjdr3EfDR-106" value="ArcGIS Pro" style="ellipse;whiteSpace=wrap;html=1;rounded=0;shadow=0;align=center;fillColor=#d5e8d4;strokeColor=#82b366;" vertex="1" parent="1">
          <mxGeometry x="1150" y="835" width="120" height="80" as="geometry"/>
        </mxCell>
        <mxCell id="7HnK9eXFFECSjdr3EfDR-110" value="" style="edgeStyle=elbowEdgeStyle;elbow=vertical;strokeWidth=4;endArrow=block;endFill=1;fontStyle=1;strokeColor=#23445D;exitX=0.5;exitY=1;exitDx=0;exitDy=0;entryX=0;entryY=0.5;entryDx=0;entryDy=0;rounded=0;" edge="1" parent="1" source="7HnK9eXFFECSjdr3EfDR-109" target="7HnK9eXFFECSjdr3EfDR-106">
          <mxGeometry x="71" y="352" width="100" height="100" as="geometry">
            <mxPoint x="936.6428571428573" y="744.9285714285716" as="sourcePoint"/>
            <mxPoint x="1060" y="840" as="targetPoint"/>
            <Array as="points">
              <mxPoint x="1040" y="875"/>
              <mxPoint x="1126.5" y="974.5"/>
            </Array>
            <mxPoint x="2" y="-8" as="offset"/>
          </mxGeometry>
        </mxCell>
        <mxCell id="7HnK9eXFFECSjdr3EfDR-119" value="" style="edgeStyle=elbowEdgeStyle;elbow=vertical;strokeWidth=4;endArrow=block;endFill=1;fontStyle=1;strokeColor=#23445D;exitX=1;exitY=0.5;exitDx=0;exitDy=0;entryX=0;entryY=0.5;entryDx=0;entryDy=0;" edge="1" parent="1" source="7HnK9eXFFECSjdr3EfDR-63" target="5">
          <mxGeometry x="-340" y="157.5" width="100" height="100" as="geometry">
            <mxPoint x="575.6176470588236" y="679.9411764705883" as="sourcePoint"/>
            <mxPoint x="815.6176470588234" y="679.9411764705883" as="targetPoint"/>
            <Array as="points">
              <mxPoint x="780" y="580"/>
            </Array>
            <mxPoint x="2" y="-8" as="offset"/>
          </mxGeometry>
        </mxCell>
        <mxCell id="7HnK9eXFFECSjdr3EfDR-63" value="ArcGIS Desktop" style="ellipse;whiteSpace=wrap;html=1;rounded=0;shadow=0;align=center;fillColor=#fff2cc;strokeColor=#d6b656;" vertex="1" parent="1">
          <mxGeometry x="615" y="540" width="120" height="80" as="geometry"/>
        </mxCell>
        <mxCell id="7HnK9eXFFECSjdr3EfDR-109" value="&lt;div&gt;ArcGIS Online&lt;/div&gt;&lt;div&gt;Account&lt;br&gt;&lt;/div&gt;" style="ellipse;whiteSpace=wrap;html=1;rounded=0;shadow=0;align=center;fillColor=#e1d5e7;strokeColor=#9673a6;" vertex="1" parent="1">
          <mxGeometry x="865" y="720.5" width="120" height="80" as="geometry"/>
        </mxCell>
        <mxCell id="7HnK9eXFFECSjdr3EfDR-120" value="&lt;div&gt;ArcGIS Online&lt;/div&gt;&lt;div&gt;Account&lt;br&gt;&lt;/div&gt;" style="ellipse;whiteSpace=wrap;html=1;rounded=0;shadow=0;align=center;fillColor=#e1d5e7;strokeColor=#9673a6;" vertex="1" parent="1">
          <mxGeometry x="120.5" y="720.5" width="120" height="80" as="geometry"/>
        </mxCell>
        <mxCell id="7HnK9eXFFECSjdr3EfDR-121" value="&lt;span style=&quot;background-color: rgb(248 , 206 , 204)&quot;&gt;Administers&lt;/span&gt;" style="endArrow=block;html=1;exitX=0.5;exitY=1;exitDx=0;exitDy=0;fontStyle=1;strokeWidth=4;endFill=1;comic=0;" edge="1" parent="1" source="7HnK9eXFFECSjdr3EfDR-72" target="7HnK9eXFFECSjdr3EfDR-120">
          <mxGeometry width="50" height="50" relative="1" as="geometry">
            <mxPoint x="180.5" y="440" as="sourcePoint"/>
            <mxPoint x="180" y="715" as="targetPoint"/>
          </mxGeometry>
        </mxCell>
        <mxCell id="7HnK9eXFFECSjdr3EfDR-122" value="&lt;div&gt;ArcGIS Online&lt;/div&gt;&lt;div&gt;Account&lt;br&gt;&lt;/div&gt;" style="ellipse;whiteSpace=wrap;html=1;rounded=0;shadow=0;align=center;fillColor=#e1d5e7;strokeColor=#9673a6;" vertex="1" parent="1">
          <mxGeometry x="1548.5" y="720.5" width="120" height="80" as="geometry"/>
        </mxCell>
        <mxCell id="7HnK9eXFFECSjdr3EfDR-126" value="" style="endArrow=block;html=1;labelBackgroundColor=#ffffff;fontSize=11;exitX=0.5;exitY=1;exitDx=0;exitDy=0;fontStyle=1;strokeWidth=4;endFill=1;" edge="1" parent="1" source="7HnK9eXFFECSjdr3EfDR-122">
          <mxGeometry width="50" height="50" relative="1" as="geometry">
            <mxPoint x="750" y="1140" as="sourcePoint"/>
            <mxPoint x="1609" y="940" as="targetPoint"/>
          </mxGeometry>
        </mxCell>
        <mxCell id="7HnK9eXFFECSjdr3EfDR-127" value="" style="endArrow=none;html=1;labelBackgroundColor=#F8CECC;fontSize=12;" edge="1" parent="1">
          <mxGeometry width="50" height="50" relative="1" as="geometry">
            <mxPoint x="60" y="1060" as="sourcePoint"/>
            <mxPoint x="110" y="1010" as="targetPoint"/>
          </mxGeometry>
        </mxCell>
        <mxCell id="7HnK9eXFFECSjdr3EfDR-131" value="UCLA" style="rounded=1;fillColor=#10739E;strokeColor=none;shadow=1;gradientColor=none;fontStyle=1;fontColor=#FFFFFF;fontSize=14;" vertex="1" parent="1">
          <mxGeometry x="835.5" y="80" width="220" height="60" as="geometry"/>
        </mxCell>
        <mxCell id="7HnK9eXFFECSjdr3EfDR-132" value="Student" style="rounded=1;fillColor=#10739E;strokeColor=none;shadow=1;gradientColor=none;fontStyle=1;fontColor=#FFFFFF;fontSize=14;" vertex="1" parent="1">
          <mxGeometry x="1086" y="220" width="220" height="60" as="geometry"/>
        </mxCell>
        <mxCell id="7HnK9eXFFECSjdr3EfDR-133" value="" style="edgeStyle=elbowEdgeStyle;elbow=vertical;strokeWidth=4;endArrow=block;endFill=1;fontStyle=1;strokeColor=#23445D;fontSize=12;rounded=1;exitX=0.5;exitY=1;exitDx=0;exitDy=0;entryX=0.5;entryY=0;entryDx=0;entryDy=0;" edge="1" parent="1" source="7HnK9eXFFECSjdr3EfDR-131" target="7HnK9eXFFECSjdr3EfDR-132">
          <mxGeometry x="10" y="10" width="100" height="100" as="geometry">
            <mxPoint x="690" y="260" as="sourcePoint"/>
            <mxPoint x="1618.5" y="375.5" as="targetPoint"/>
            <Array as="points">
              <mxPoint x="1080" y="170"/>
            </Array>
            <mxPoint x="18" y="-37" as="offset"/>
          </mxGeometry>
        </mxCell>
        <mxCell id="7HnK9eXFFECSjdr3EfDR-134" value="" style="edgeStyle=elbowEdgeStyle;elbow=vertical;strokeWidth=4;endArrow=block;endFill=1;fontStyle=1;strokeColor=#23445D;fontSize=12;rounded=1;exitX=0.5;exitY=1;exitDx=0;exitDy=0;entryX=0.5;entryY=0;entryDx=0;entryDy=0;" edge="1" parent="1" source="7HnK9eXFFECSjdr3EfDR-131" target="3">
          <mxGeometry x="20" y="20" width="100" height="100" as="geometry">
            <mxPoint x="956" y="150" as="sourcePoint"/>
            <mxPoint x="1206" y="200" as="targetPoint"/>
            <Array as="points">
              <mxPoint x="946" y="170"/>
            </Array>
            <mxPoint x="18" y="-37" as="offset"/>
          </mxGeometry>
        </mxCell>
        <mxCell id="7HnK9eXFFECSjdr3EfDR-148" value="" style="edgeStyle=elbowEdgeStyle;elbow=vertical;strokeWidth=4;endArrow=block;endFill=1;fontStyle=1;strokeColor=#23445D;fontSize=12;rounded=1;exitX=0.5;exitY=1;exitDx=0;exitDy=0;entryX=1;entryY=0.5;entryDx=0;entryDy=0;" edge="1" parent="1" source="7HnK9eXFFECSjdr3EfDR-132" target="5">
          <mxGeometry x="20" y="20" width="100" height="100" as="geometry">
            <mxPoint x="955" y="150" as="sourcePoint"/>
            <mxPoint x="1140" y="600" as="targetPoint"/>
            <Array as="points">
              <mxPoint x="1120" y="580"/>
              <mxPoint x="1130" y="680"/>
            </Array>
            <mxPoint x="18" y="-37" as="offset"/>
          </mxGeometry>
        </mxCell>
        <mxCell id="7HnK9eXFFECSjdr3EfDR-150" value="ArcGIS Pro" style="ellipse;whiteSpace=wrap;html=1;rounded=0;shadow=0;align=center;fillColor=#d5e8d4;strokeColor=#82b366;" vertex="1" parent="1">
          <mxGeometry x="220.5" y="835" width="120" height="80" as="geometry"/>
        </mxCell>
        <mxCell id="7HnK9eXFFECSjdr3EfDR-151" value="" style="edgeStyle=elbowEdgeStyle;elbow=vertical;strokeWidth=4;endArrow=block;endFill=1;fontStyle=1;strokeColor=#23445D;exitX=0.5;exitY=1;exitDx=0;exitDy=0;entryX=0;entryY=0.5;entryDx=0;entryDy=0;rounded=0;" edge="1" parent="1" target="7HnK9eXFFECSjdr3EfDR-150" source="7HnK9eXFFECSjdr3EfDR-120">
          <mxGeometry x="81" y="362" width="100" height="100" as="geometry">
            <mxPoint x="997.5" y="885" as="sourcePoint"/>
            <mxPoint x="946.6428571428573" y="954.9285714285716" as="targetPoint"/>
            <Array as="points">
              <mxPoint x="180" y="875"/>
              <mxPoint x="1136.5" y="984.5"/>
            </Array>
            <mxPoint x="2" y="-8" as="offset"/>
          </mxGeometry>
        </mxCell>
        <mxCell id="7HnK9eXFFECSjdr3EfDR-153" value="ArcGIS Pro" style="ellipse;whiteSpace=wrap;html=1;rounded=0;shadow=0;align=center;fillColor=#d5e8d4;strokeColor=#82b366;" vertex="1" parent="1">
          <mxGeometry x="1448.5" y="830" width="120" height="80" as="geometry"/>
        </mxCell>
        <mxCell id="7HnK9eXFFECSjdr3EfDR-154" value="" style="edgeStyle=elbowEdgeStyle;elbow=vertical;strokeWidth=4;endArrow=block;endFill=1;fontStyle=1;strokeColor=#23445D;exitX=0.5;exitY=1;exitDx=0;exitDy=0;entryX=1;entryY=0.5;entryDx=0;entryDy=0;rounded=0;" edge="1" parent="1" source="7HnK9eXFFECSjdr3EfDR-122" target="7HnK9eXFFECSjdr3EfDR-153">
          <mxGeometry x="91" y="372" width="100" height="100" as="geometry">
            <mxPoint x="190" y="810" as="sourcePoint"/>
            <mxPoint x="1340" y="1020" as="targetPoint"/>
            <Array as="points">
              <mxPoint x="1608" y="870"/>
              <mxPoint x="1146.5" y="994.5"/>
            </Array>
            <mxPoint x="2" y="-8" as="offset"/>
          </mxGeometry>
        </mxCell>
        <mxCell id="7HnK9eXFFECSjdr3EfDR-161" value="" style="endArrow=block;html=1;labelBackgroundColor=#ffffff;fontSize=11;entryX=0.5;entryY=0;entryDx=0;entryDy=0;exitX=0.5;exitY=1;exitDx=0;exitDy=0;fontStyle=1;strokeColor=#23445D;strokeWidth=4;endFill=1;" edge="1" parent="1" source="3" target="4">
          <mxGeometry width="50" height="50" relative="1" as="geometry">
            <mxPoint x="70" y="1160" as="sourcePoint"/>
            <mxPoint x="120" y="1110" as="targetPoint"/>
          </mxGeometry>
        </mxCell>
        <mxCell id="7HnK9eXFFECSjdr3EfDR-164" value="" style="endArrow=classic;html=1;dashed=1;labelBackgroundColor=#F8CECC;strokeColor=#999999;fontSize=16;entryX=0;entryY=0.5;entryDx=0;entryDy=0;exitX=1;exitY=0.5;exitDx=0;exitDy=0;" edge="1" parent="1" source="7HnK9eXFFECSjdr3EfDR-72" target="4">
          <mxGeometry width="50" height="50" relative="1" as="geometry">
            <mxPoint x="30" y="1160" as="sourcePoint"/>
            <mxPoint x="80" y="1110" as="targetPoint"/>
          </mxGeometry>
        </mxCell>
        <mxCell id="7HnK9eXFFECSjdr3EfDR-165" value="" style="endArrow=classic;html=1;dashed=1;labelBackgroundColor=#F8CECC;strokeColor=#999999;fontSize=16;entryX=1;entryY=0.5;entryDx=0;entryDy=0;exitX=0;exitY=0.5;exitDx=0;exitDy=0;" edge="1" parent="1" source="7" target="4">
          <mxGeometry width="50" height="50" relative="1" as="geometry">
            <mxPoint x="290.5" y="420" as="sourcePoint"/>
            <mxPoint x="590" y="420" as="targetPoint"/>
          </mxGeometry>
        </mxCell>
        <mxCell id="7HnK9eXFFECSjdr3EfDR-166" value="" style="endArrow=block;html=1;labelBackgroundColor=#ffffff;strokeColor=#23445D;fontSize=11;entryX=0.5;entryY=0;entryDx=0;entryDy=0;exitX=0.5;exitY=1;exitDx=0;exitDy=0;rounded=1;fontStyle=1;strokeWidth=4;endFill=1;" edge="1" parent="1" source="5" target="7HnK9eXFFECSjdr3EfDR-109">
          <mxGeometry width="50" height="50" relative="1" as="geometry">
            <mxPoint x="370" y="1130" as="sourcePoint"/>
            <mxPoint x="420" y="1080" as="targetPoint"/>
          </mxGeometry>
        </mxCell>
        <mxCell id="7HnK9eXFFECSjdr3EfDR-167" value="" style="endArrow=block;html=1;labelBackgroundColor=#ffffff;strokeColor=#23445D;fontSize=11;exitX=0.5;exitY=1;exitDx=0;exitDy=0;fontStyle=1;strokeWidth=4;endFill=1;" edge="1" parent="1" source="7HnK9eXFFECSjdr3EfDR-109">
          <mxGeometry width="50" height="50" relative="1" as="geometry">
            <mxPoint x="920" y="800" as="sourcePoint"/>
            <mxPoint x="925" y="930" as="targetPoint"/>
          </mxGeometry>
        </mxCell>
      </root>
    </mxGraphModel>
  </diagram>
</mxfile>
